<?xml version="1.0" encoding="UTF-8"?>
<svg id="Camada_2" data-name="Camada 2" xmlns="http://www.w3.org/2000/svg" viewBox="0 0 946.47 261.2">
  <defs>
    <style>
      .cls-1 {
        fill: #26bace;
      }

      .cls-1, .cls-2, .cls-3 {
        stroke-width: 0px;
      }

      .cls-2 {
        fill: #fe9535;
      }

      .cls-3 {
        fill: #fff;
      }
    </style>
  </defs>
  <g id="Camada_1-2" data-name="Camada 1">
    <g>
      <g>
        <g>
          <path class="cls-3" d="M118.12,108.96c0-.16.08-3.7,3.22-5.94,2.22-1.58,7.77-4.27,11.46-5.95-2.5-13.74-4.29-24.03-4.27-23.94,0,0-3.43-18.65,3.77-39.11,3.22-9.15,1.49-33.22-18.91-33.22s-22.13,24.06-18.91,33.22c7.19,20.46,3.77,39.11,3.77,39.11.02-.1-1.73,9.52-4.24,23.29,3.62,1.62,9.91,4.62,12.31,6.33,3.14,2.24,3.22,5.78,3.22,5.93v148.94c.77,1.64,2.43,2.78,4.36,2.78,1.82,0,3.41-1.01,4.23-2.51V108.96Z"/>
          <path class="cls-1" d="M113.89,261.2c-2.17,0-4.17-1.27-5.09-3.24l-.08-.16V108.68c0-.12-.07-3.27-2.89-5.27-2.37-1.69-8.77-4.73-12.17-6.25l-.58-.26,3.55-19.49c.51-2.78.8-4.37.8-4.41l.71.13-.71-.13s0,0,0,0h0c.06-.31,3.27-18.76-3.73-38.69-2.02-5.75-2.28-18.11,3.57-26.38,3.72-5.25,9.14-7.91,16.1-7.91s12.38,2.66,16.1,7.91c5.86,8.27,5.6,20.63,3.57,26.38-7.03,20-3.77,38.51-3.73,38.7l-.75.14.75-.12c.01.06,1.8,10.35,4.27,23.93l.11.62-.57.26c-4.14,1.88-9.29,4.42-11.32,5.87-2.8,2-2.88,5.13-2.89,5.29v149.13l-.1.18c-.99,1.81-2.88,2.93-4.94,2.93ZM110.34,257.43c.69,1.32,2.07,2.16,3.56,2.16,1.4,0,2.7-.73,3.42-1.92V108.95c0-.17.09-4.11,3.56-6.59,2.04-1.45,6.92-3.88,11.02-5.76-1.24-6.82-2.29-12.71-2.96-16.49-.38-2.14-.68-3.85-.89-5.03l-.24-1.35c-.03-.14-.05-.3-.06-.46h-.02s0,0,0,0h0c-.04-.2-3.38-19.1,3.8-39.52,1.91-5.43,2.16-17.11-3.37-24.91-3.4-4.8-8.37-7.23-14.78-7.23s-11.38,2.43-14.78,7.23c-5.53,7.81-5.28,19.48-3.37,24.91,7.18,20.42,3.83,39.33,3.8,39.52h-.01s0,0,0,0h.01s-.01,0-.01,0c0,.12-.03.22-.04.29l-4.08,22.37c2.18.99,9.16,4.22,11.87,6.15,3.47,2.48,3.56,6.41,3.56,6.58v148.76Z"/>
        </g>
        <path class="cls-2" d="M118.02,40.09c.58-.82,1.75-1.01,2.51-.36.37.31.61.78.59,1.33,0,.05,0,.1,0,.15l-6.15,72.83c-.02.23-.12.45-.27.62h-.01c-.43.49-1.19.49-1.63.01h0c-.16-.18-.26-.4-.28-.64l-7.11-72.84s0-.09,0-.14c0-.49.2-.92.51-1.22.75-.73,1.99-.57,2.59.28l3.09,4.33c.76,1.06,2.33,1.06,3.09,0l3.09-4.34Z"/>
        <path class="cls-1" d="M214.38,82.19c-21.67,1.23-64.73,5.71-91.32,21.98-1.83,1.12-2.87,3.12-2.87,5.21v143.87c0,4.57,4.99,7.45,9.2,5.33,27.35-13.77,66.91-17.52,86.47-18.55,6.68-.35,11.87-5.71,11.87-12.12V94.33c0-7-6.07-12.55-13.35-12.14ZM104.67,104.17c-26.58-16.27-69.65-20.75-91.31-21.98-7.28-.41-13.36,5.14-13.36,12.14v133.58c0,6.42,5.19,11.77,11.87,12.12,19.57,1.03,59.15,4.79,86.5,18.56,4.2,2.12,9.18-.77,9.18-5.32V109.3c0-2.09-1.04-4.01-2.87-5.14Z"/>
        <g>
          <rect class="cls-2" x="50.97" y="214.14" width="11.3" height="42.19" rx="5.65" ry="5.65"/>
          <rect class="cls-2" x="61.89" y="218.66" width="11.3" height="42.19" rx="5.65" ry="5.65" transform="translate(189.31 22.47) rotate(45)"/>
          <rect class="cls-2" x="40.05" y="218.66" width="11.3" height="42.19" rx="5.65" ry="5.65" transform="translate(247.54 376.97) rotate(135)"/>
        </g>
        <g>
          <rect class="cls-2" x="168.31" y="214.14" width="11.3" height="42.19" rx="5.65" ry="5.65"/>
          <rect class="cls-2" x="179.23" y="218.66" width="11.3" height="42.19" rx="5.65" ry="5.65" transform="translate(223.68 -60.51) rotate(45)"/>
          <rect class="cls-2" x="157.39" y="218.66" width="11.3" height="42.19" rx="5.65" ry="5.65" transform="translate(447.86 294) rotate(135)"/>
        </g>
      </g>
      <g>
        <path class="cls-1" d="M391.11,109.77c-2.78-2.9-5.98-5.18-9.59-6.85-3.62-1.67-7.44-2.5-11.49-2.5-5.24,0-10.2,1.35-14.89,4.05-4.69,2.7-8.48,6.57-11.37,11.61-2.9,5.04-4.35,11.14-4.35,18.28,0,6.12,1.33,11.59,3.99,16.44,2.66,4.84,6.47,8.68,11.44,11.49,4.96,2.82,10.82,4.23,17.57,4.23,3.97,0,7.82-.65,11.55-1.97,3.73-1.31,6.63-2.84,8.69-4.59,2.22-1.75,3.33-3.69,3.33-5.84,0-1.59-.58-2.98-1.73-4.17-1.15-1.19-2.6-1.79-4.35-1.79-1.27,0-2.62.36-4.05,1.07-.87.48-1.84,1.05-2.92,1.73-1.07.68-2.48,1.25-4.23,1.73-1.75.48-4.09.72-7.03.72-3.18,0-6.18-.78-8.99-2.32-2.82-1.55-5.12-3.81-6.91-6.79-1.04-1.73-1.74-3.72-2.18-5.9h39.28c1.91,0,3.57-.6,5-1.79,1.43-1.19,2.18-2.74,2.26-4.64,0-4.29-.82-8.34-2.44-12.15-1.63-3.81-3.83-7.17-6.61-10.07ZM358,117.69c1.51-1.51,3.29-2.58,5.36-3.22,2.07-.63,4.29-.95,6.67-.95s4.78.54,6.97,1.61c2.18,1.07,4.01,2.52,5.48,4.35,1.47,1.83,2.28,3.89,2.44,6.19v.83h-31.19c.19-.98.41-1.91.7-2.74.87-2.54,2.06-4.57,3.57-6.07Z"/>
        <path class="cls-1" d="M489.61,134.8l19.94,30.7c1.44.36,2.92.62,4.44.79l9.09-13.57c-1.59.46-3.25.7-5,.7-3.34,0-6.37-.83-9.11-2.5-2.74-1.67-4.92-3.99-6.55-6.97-1.63-2.98-2.44-6.45-2.44-10.42s.81-7.56,2.44-10.54c1.63-2.98,3.81-5.3,6.55-6.97,2.74-1.67,5.78-2.5,9.11-2.5s6.37.83,9.11,2.5c2.74,1.67,4.92,3.99,6.55,6.97,1.61,2.96,2.42,6.44,2.44,10.45,2.14-2.34,4.83-3.55,7.91-3.55,2.31,0,4.43.69,6.34,1.99-.23-5.83-1.65-11.03-4.3-15.56-2.9-4.96-6.79-8.85-11.67-11.67-4.88-2.82-10.34-4.23-16.38-4.23s-11.49,1.41-16.38,4.23c-4.88,2.82-8.78,6.71-11.67,11.67-2.58,4.42-4,9.45-4.29,15.09,1.63.87,2.94,2,3.87,3.4Z"/>
        <path class="cls-1" d="M325.19,148.66c-1.63-.24-3.28.04-4.94.83-1.98,1.03-4.05,1.75-6.19,2.14-2.14.4-4.29.6-6.43.6-3.89,0-7.5-.57-10.84-1.73-3.33-1.15-6.23-2.92-8.69-5.3-2.46-2.38-4.39-5.36-5.78-8.93-1.39-3.57-2.08-7.78-2.08-12.63,0-4.13.61-7.9,1.84-11.31,1.23-3.41,3.04-6.37,5.42-8.87s5.26-4.43,8.64-5.78c3.37-1.35,7.21-2.02,11.49-2.02,2.3,0,4.51.24,6.61.72,2.1.48,4.11,1.15,6.02,2.02,1.67.79,3.31,1.11,4.94.95,1.63-.16,2.96-.95,3.99-2.38,1.51-1.83,2.08-3.85,1.73-6.07-.36-2.22-1.57-3.85-3.63-4.88-2.94-1.51-6.07-2.66-9.41-3.45-3.33-.79-6.75-1.19-10.24-1.19-6.19,0-11.91,1.05-17.15,3.16-5.24,2.1-9.79,5.04-13.64,8.81-3.85,3.77-6.83,8.24-8.93,13.4-2.11,5.16-3.16,10.8-3.16,16.91,0,7.07,1.15,13.28,3.45,18.64,2.3,5.36,5.46,9.83,9.47,13.4,4.01,3.57,8.57,6.27,13.7,8.1,5.12,1.83,10.54,2.74,16.26,2.74,2.3,0,4.57-.18,6.79-.54,2.22-.36,4.42-.87,6.61-1.55,2.18-.67,4.31-1.53,6.37-2.56,1.98-.95,3.2-2.48,3.63-4.59.44-2.1-.14-4.15-1.73-6.13-1.11-1.43-2.48-2.26-4.11-2.5Z"/>
        <path class="cls-1" d="M468.79,140.98c0-3.01,1.16-5.73,3.36-7.87.32-.31.68-.55,1.02-.82v-24.61c0-2.14-.68-3.89-2.02-5.24-1.35-1.35-3.06-2.02-5.12-2.02s-3.77.69-5.12,2.08c-1.35,1.39-2.02,3.12-2.02,5.18v1.36c-.95-1.06-2.07-2.1-3.4-3.14-2.02-1.59-4.43-2.9-7.21-3.93-2.78-1.03-5.84-1.55-9.17-1.55-5.48,0-10.44,1.41-14.89,4.23-4.45,2.82-7.98,6.71-10.6,11.67-2.62,4.96-3.93,10.7-3.93,17.21s1.31,12.13,3.93,17.09c2.62,4.96,6.19,8.86,10.72,11.67,4.53,2.82,9.61,4.23,15.25,4.23,2.86,0,5.56-.5,8.1-1.49,2.54-.99,4.74-2.2,6.61-3.63,1.86-1.43,3.33-2.88,4.41-4.35.07-.09.12-.18.18-.27v5.81c0,4.21-1.43,7.5-4.29,9.89-2.86,2.38-7.27,3.57-13.22,3.57-1.67,0-3.59-.3-5.78-.89s-4.19-1.25-6.02-1.97c-1.83-.71-3.14-1.19-3.93-1.43-1.75-.64-3.42-.54-5,.3-1.59.83-2.74,2.4-3.45,4.7-.56,1.75-.38,3.4.54,4.94s2.56,2.84,4.94,3.87c1.19.48,2.94.99,5.24,1.55,2.3.55,4.72,1.03,7.27,1.43,2.54.4,4.6.6,6.19.6,5.56,0,10.76-.93,15.6-2.8,4.84-1.87,8.75-4.88,11.73-9.05.03-.04.05-.09.08-.13v-36.19ZM457.21,143.65c-1.51,3.02-3.61,5.4-6.31,7.15-2.7,1.75-5.88,2.62-9.53,2.62s-6.71-.87-9.41-2.62c-2.7-1.75-4.81-4.13-6.31-7.15-1.51-3.02-2.26-6.39-2.26-10.12s.75-7.22,2.26-10.24c1.51-3.02,3.61-5.4,6.31-7.15,2.7-1.75,5.84-2.62,9.41-2.62s6.83.87,9.53,2.62c2.7,1.75,4.8,4.13,6.31,7.15s2.26,6.43,2.26,10.24-.76,7.11-2.26,10.12Z"/>
        <path class="cls-1" d="M566.68,164.48c2.78-4.32,6.33-7.88,10.59-10.63v-26.28c0-2.62.58-4.98,1.73-7.09,1.15-2.1,2.82-3.79,5-5.06,2.18-1.27,4.86-1.91,8.04-1.91s5.76.64,7.5,1.91c1.75,1.27,2.96,2.96,3.63,5.06.67,2.11,1.01,4.47,1.01,7.09v21.34c3.85.74,7.47,2.08,10.82,4.01,1.21.7,2.37,1.47,3.47,2.3v-27.65c0-5-.58-9.55-1.73-13.64-1.15-4.09-3.26-7.36-6.31-9.83s-7.52-3.69-13.4-3.69c-2.7,0-5.2.42-7.5,1.25-2.3.83-4.37,1.93-6.19,3.28-1.83,1.35-3.41,2.8-4.76,4.35-.48.55-.91,1.09-1.31,1.62v-2.03c0-2.06-.68-3.79-2.02-5.18-1.35-1.39-3.06-2.08-5.12-2.08s-3.77.7-5.12,2.08c-1.35,1.39-2.02,3.12-2.02,5.18v49.19c0,2.07.67,3.79,2.02,5.18.5.52,1.07.91,1.68,1.23Z"/>
        <path class="cls-1" d="M648.26,156.21v-28.64c0-2.62.54-4.98,1.61-7.09,1.07-2.1,2.68-3.79,4.82-5.06,2.14-1.27,4.72-1.91,7.74-1.91s5.48.64,7.15,1.91c1.67,1.27,2.82,2.96,3.45,5.06.63,2.11.95,4.47.95,7.09v21.01c1.99.29,3.9.75,5.7,1.42,2.51.93,4.77,2.09,6.77,3.44.42-.7.93-1.36,1.53-1.97.09-.1.21-.16.3-.25v-23.65c0-5-.56-9.55-1.67-13.64-1.11-4.09-3.16-7.36-6.13-9.83-2.98-2.46-7.32-3.69-13.04-3.69-2.62,0-5.04.42-7.27,1.25-2.22.83-4.25,1.93-6.07,3.28-1.83,1.35-3.38,2.8-4.64,4.35-.45.54-.81,1.06-1.19,1.58v-26.41c0-2.06-.68-3.79-2.02-5.18-1.35-1.39-3.06-2.08-5.12-2.08s-3.77.7-5.12,2.08c-1.35,1.39-2.02,3.12-2.02,5.18v73.61c0,2.07.67,3.79,2.02,5.18,1.33,1.37,3.01,2.06,5.04,2.08,1.96-3.53,4.38-6.57,7.23-9.11Z"/>
        <path class="cls-1" d="M738.48,165.03c1.53-.59,2.93-1.27,4.23-2.01,2.63-4.08,5.93-7.44,9.87-9.99,3.25-2.1,6.77-3.5,10.5-4.22v-41.13c0-2.14-.68-3.89-2.02-5.24-1.35-1.35-3.06-2.02-5.12-2.02s-3.77.69-5.12,2.08c-1.35,1.39-2.02,3.12-2.02,5.18v.17c-.7-.66-1.46-1.31-2.32-1.96-2.11-1.59-4.59-2.9-7.44-3.93-2.86-1.03-6-1.55-9.41-1.55-5.32,0-10.16,1.41-14.53,4.23-4.37,2.82-7.84,6.71-10.42,11.67-2.58,4.96-3.87,10.7-3.87,17.21s1.29,12.13,3.87,17.09c1.83,3.52,4.15,6.47,6.92,8.92.21-2.64,1.21-5.02,3.02-6.88,1.64-1.69,3.71-2.75,6.04-3.11-2.75-.19-4.83-.88-6.36-2.08-2.08-1.63-3.14-4.21-3.14-7.67v-2.23c0-4.54,1.93-6.8,3.55-7.89.03-.02.08-.04.11-.06.34-2.27.94-4.39,1.89-6.33,1.47-3.02,3.51-5.4,6.13-7.15,2.62-1.75,5.64-2.62,9.05-2.62s6.55.87,9.17,2.62,4.66,4.13,6.13,7.15c1.47,3.02,2.2,6.43,2.2,10.24s-.74,7.11-2.2,10.12c-1.47,3.02-3.51,5.4-6.13,7.15s-5.68,2.62-9.17,2.62c-.34,0-.65-.05-.98-.06,1.64,1.99,2.55,4.42,2.55,7.14v5.78c1.76-.23,3.45-.63,5.04-1.25Z"/>
        <path class="cls-2" d="M480.12,133.81c1.1,0,2.25.29,3.47.88,1.22.59,2.14,1.35,2.76,2.29l25.6,39.4,26.37-39.4c1.49-2.11,3.41-3.17,5.76-3.17,1.88,0,3.57.67,5.06,2,1.49,1.33,2.23,3.06,2.23,5.17v68.08c0,2.04-.67,3.75-2,5.12-1.33,1.37-3.1,2.06-5.29,2.06s-3.98-.69-5.35-2.06c-1.37-1.37-2.06-3.08-2.06-5.12v-47.33l-19.4,29.58c-.71.86-1.59,1.61-2.65,2.23-1.06.63-2.14.9-3.23.82-1.02.08-2.06-.2-3.12-.82-1.06-.63-1.94-1.37-2.65-2.23l-19.4-30.68v48.43c0,2.04-.63,3.75-1.88,5.12-1.26,1.37-2.9,2.06-4.94,2.06s-3.57-.69-4.82-2.06c-1.26-1.37-1.88-3.08-1.88-5.12v-68.08c0-1.96.72-3.64,2.18-5.06,1.45-1.41,3.19-2.11,5.23-2.11Z"/>
        <path class="cls-2" d="M628.87,184.84c0,6.43-1.43,12.09-4.29,16.99s-6.7,8.72-11.52,11.46c-4.82,2.74-10.21,4.11-16.17,4.11s-11.35-1.37-16.17-4.11c-4.82-2.74-8.66-6.56-11.52-11.46-2.86-4.9-4.29-10.56-4.29-16.99s1.43-12.09,4.29-16.99c2.86-4.9,6.7-8.74,11.52-11.52,4.82-2.78,10.21-4.17,16.17-4.17s11.35,1.39,16.17,4.17c4.82,2.78,8.66,6.63,11.52,11.52,2.86,4.9,4.29,10.56,4.29,16.99ZM614.76,184.84c0-4-.8-7.47-2.41-10.41-1.61-2.94-3.76-5.23-6.47-6.88-2.7-1.65-5.7-2.47-9-2.47s-6.29.82-9,2.47-4.86,3.94-6.47,6.88c-1.61,2.94-2.41,6.41-2.41,10.41s.8,7.35,2.41,10.29c1.61,2.94,3.76,5.23,6.47,6.88s5.7,2.47,9,2.47,6.29-.82,9-2.47c2.71-1.65,4.86-3.94,6.47-6.88,1.61-2.94,2.41-6.37,2.41-10.29Z"/>
        <path class="cls-2" d="M669.27,152.15c3.29,0,6.31.51,9.05,1.53,2.74,1.02,5.12,2.31,7.11,3.88,1.3,1.02,2.42,2.05,3.35,3.08,0-.51,0-1.32,0-1.32,0-2.04.67-3.74,2-5.12,1.33-1.37,3.02-2.06,5.06-2.06s3.72.67,5.06,2c1.33,1.33,2,3.06,2,5.17v52.33c0,6.82-1.47,12.29-4.41,16.4-2.94,4.11-6.8,7.09-11.58,8.94-4.78,1.84-9.92,2.76-15.4,2.76-1.57,0-3.61-.2-6.11-.59-2.51-.39-4.9-.86-7.17-1.41-2.28-.55-4-1.06-5.17-1.53-2.35-1.02-3.98-2.29-4.88-3.82-.9-1.53-1.08-3.16-.53-4.88.71-2.27,1.84-3.82,3.41-4.64,1.57-.82,3.21-.92,4.94-.29.78.24,2.07.7,3.88,1.41,1.8.71,3.78,1.35,5.94,1.94,2.16.59,4.06.88,5.7.88,5.88,0,10.23-1.18,13.05-3.53,2.82-2.35,4.23-5.61,4.23-9.76v-5.68s.05-.08-.18.22c-1.06,1.45-2.51,2.88-4.35,4.29-1.84,1.41-4.02,2.61-6.53,3.59-2.51.98-5.17,1.47-8,1.47-5.57,0-10.58-1.39-15.05-4.17-4.47-2.78-8-6.62-10.58-11.52-2.59-4.9-3.88-10.52-3.88-16.87s1.29-12.09,3.88-16.99c2.59-4.9,6.07-8.74,10.47-11.52,4.39-2.78,9.29-4.17,14.7-4.17ZM671.51,165.09c-3.53,0-6.63.86-9.29,2.59-2.67,1.73-4.74,4.08-6.23,7.06-1.49,2.98-2.24,6.35-2.24,10.11s.74,7.02,2.24,9.99c1.49,2.98,3.57,5.33,6.23,7.05,2.66,1.73,5.76,2.59,9.29,2.59s6.74-.86,9.41-2.59c2.66-1.72,4.74-4.07,6.23-7.05,1.49-2.98,2.24-6.31,2.24-9.99s-.75-7.13-2.24-10.11c-1.49-2.98-3.57-5.33-6.23-7.06-2.67-1.72-5.8-2.59-9.41-2.59Z"/>
        <path class="cls-2" d="M722.35,145.68c-2.66,0-4.55-.43-5.64-1.29-1.1-.86-1.65-2.39-1.65-4.59v-2.23c0-2.27.61-3.82,1.82-4.64,1.21-.82,3.08-1.23,5.58-1.23,2.74,0,4.66.43,5.76,1.29,1.1.87,1.65,2.39,1.65,4.59v2.23c0,2.27-.59,3.82-1.76,4.64s-3.1,1.23-5.76,1.23ZM729.52,209.06c0,2.04-.67,3.75-2,5.12-1.33,1.37-3.02,2.06-5.06,2.06s-3.72-.69-5.06-2.06c-1.33-1.37-2-3.08-2-5.12v-48.56c0-2.04.66-3.74,2-5.11,1.33-1.37,3.02-2.06,5.06-2.06s3.72.69,5.06,2.06c1.33,1.37,2,3.08,2,5.11v48.56Z"/>
        <path class="cls-2" d="M851.46,152.15c5.8,0,10.21,1.22,13.23,3.65,3.02,2.43,5.1,5.67,6.23,9.7,1.13,4.04,1.71,8.52,1.71,13.46v30.1c0,2.04-.67,3.75-2,5.12-1.33,1.37-3.02,2.06-5.06,2.06s-3.72-.69-5.06-2.06c-1.33-1.37-2-3.08-2-5.12v-30.1c0-2.59-.33-4.92-1-7-.67-2.08-1.86-3.74-3.59-5-1.73-1.25-4.2-1.88-7.41-1.88s-5.78.63-7.94,1.88c-2.16,1.25-3.8,2.92-4.94,5-1.14,2.08-1.71,4.41-1.71,7v30.1c0,2.04-.67,3.75-2,5.12-1.33,1.37-3.02,2.06-5.06,2.06s-3.72-.69-5.06-2.06c-1.33-1.37-2-3.08-2-5.12v-48.56c0-2.04.66-3.74,2-5.11,1.33-1.37,3.02-2.06,5.06-2.06s3.72.69,5.06,2.06c1.33,1.37,2,3.08,2,5.11v1.99s-.04-.05,1.29-1.58c1.33-1.53,2.9-2.96,4.7-4.29,1.8-1.33,3.84-2.41,6.11-3.23,2.27-.82,4.74-1.23,7.41-1.23Z"/>
        <path class="cls-2" d="M939.41,152.15c2.04,0,3.72.67,5.06,2,1.33,1.33,2,3.06,2,5.17v49.74c0,2.04-.67,3.75-2,5.12-1.33,1.37-3.02,2.06-5.06,2.06s-3.72-.69-5.06-2.06c-1.31-1.34-1.97-3-2-4.99,0-.04,0-.08,0-.13,0,0-1.65,1.88-3.53,3.29-1.88,1.41-4.1,2.61-6.64,3.59-2.55.98-5.31,1.47-8.29,1.47-5.41,0-10.31-1.39-14.7-4.17-4.39-2.78-7.86-6.62-10.41-11.52-2.55-4.9-3.82-10.52-3.82-16.87s1.27-12.09,3.82-16.99c2.55-4.9,5.98-8.74,10.29-11.52,4.31-2.78,9.09-4.17,14.35-4.17,3.37,0,6.47.51,9.29,1.53,2.82,1.02,5.27,2.31,7.35,3.88.84.64,1.61,1.27,2.29,1.92,0-.35,0-.15,0-.15,0-2.04.66-3.74,2-5.12,1.33-1.37,3.02-2.06,5.06-2.06ZM915.66,204.48c3.45,0,6.47-.86,9.05-2.59,2.59-1.72,4.6-4.07,6.06-7.05,1.45-2.98,2.18-6.31,2.18-9.99s-.73-7.13-2.18-10.11c-1.45-2.98-3.47-5.33-6.06-7.06-2.59-1.72-5.61-2.59-9.05-2.59s-6.35.86-8.94,2.59c-2.59,1.73-4.61,4.08-6.06,7.06-1.45,2.98-2.18,6.35-2.18,10.11s.72,7.02,2.18,9.99c1.45,2.98,3.47,5.33,6.06,7.05,2.59,1.73,5.57,2.59,8.94,2.59Z"/>
        <path class="cls-2" d="M795.04,152.15c2.04,0,3.72.67,5.06,2,1.33,1.33,2,3.06,2,5.17v49.74c0,2.04-.67,3.75-2,5.12-1.33,1.37-3.02,2.06-5.06,2.06s-3.72-.69-5.06-2.06c-1.31-1.34-1.97-3-2-4.99,0-.04,0-.08,0-.13,0,0-1.65,1.88-3.53,3.29-1.88,1.41-4.1,2.61-6.64,3.59-2.55.98-5.31,1.47-8.29,1.47-5.41,0-10.31-1.39-14.7-4.17-4.39-2.78-7.86-6.62-10.41-11.52-2.55-4.9-3.82-10.52-3.82-16.87s1.27-12.09,3.82-16.99c2.55-4.9,5.98-8.74,10.29-11.52,4.31-2.78,9.09-4.17,14.35-4.17,3.37,0,6.47.51,9.29,1.53,2.82,1.02,5.27,2.31,7.35,3.88.84.64,1.61,1.27,2.29,1.92,0-.35,0-.15,0-.15,0-2.04.66-3.74,2-5.12,1.33-1.37,3.02-2.06,5.06-2.06ZM771.28,204.48c3.45,0,6.47-.86,9.05-2.59,2.59-1.72,4.6-4.07,6.06-7.05,1.45-2.98,2.18-6.31,2.18-9.99s-.73-7.13-2.18-10.11c-1.45-2.98-3.47-5.33-6.06-7.06-2.59-1.72-5.61-2.59-9.05-2.59s-6.35.86-8.94,2.59c-2.59,1.73-4.61,4.08-6.06,7.06-1.45,2.98-2.18,6.35-2.18,10.11s.72,7.02,2.18,9.99c1.45,2.98,3.47,5.33,6.06,7.05,2.59,1.73,5.57,2.59,8.94,2.59Z"/>
      </g>
    </g>
  </g>
</svg>